<svg xmlns="http://www.w3.org/2000/svg" viewBox="0 0 180 180" fill="none">
  <rect width="180" height="180" rx="40" fill="#2563eb"/>
  <g transform="translate(30, 30)">
    <path d="M103.5 12c-4.5-4.5-12-3-21 6l-18 18-42-12c-2.4-.6-4.8.6-6 2.4l-1.8 3c-1.2 1.8-.6 4.2 1.2 5.4l30 21-21 21-12-3c-1.8-.6-3.6 0-4.8 1.2l-1.2 1.8c-.6 1.2-.6 3 .6 4.2l12 12 12 12c1.2 1.2 3 1.8 4.2.6l1.8-1.2c1.2-1.2 1.8-3 1.2-4.8l-3-12 21-21 21 30c1.2 1.8 3.6 2.4 5.4 1.2l3-1.8c1.8-1.2 3-3.6 2.4-6l-12-42 18-18c9-9 10.5-16.5 6-21z" fill="white"/>
  </g>
</svg>
